<svg id="svg" version="1.1" xmlns="http://www.w3.org/2000/svg" xmlns:xlink="http://www.w3.org/1999/xlink" width="400" height="400" viewBox="0, 0, 400,400"><g id="svgg"><path id="path0" d="M54.544 61.500 C 52.800 63.205,50.934 65.230,50.399 66.000 C 49.864 66.770,48.784 68.030,48.000 68.800 C 47.216 69.570,46.134 70.830,45.596 71.600 C 45.058 72.370,44.208 73.413,43.709 73.918 C 43.209 74.423,42.800 74.970,42.800 75.134 C 42.800 75.298,42.080 76.228,41.200 77.200 C 40.320 78.172,39.600 79.118,39.600 79.302 C 39.600 79.486,39.150 80.086,38.600 80.636 C 38.050 81.186,37.600 81.800,37.600 82.000 C 37.600 82.200,37.150 82.814,36.600 83.364 C 36.050 83.914,35.600 84.560,35.600 84.800 C 35.600 85.040,35.164 85.672,34.631 86.205 C 34.098 86.738,33.546 87.540,33.404 87.987 C 33.262 88.434,32.978 88.800,32.773 88.800 C 32.568 88.800,32.400 89.036,32.400 89.325 C 32.400 89.613,32.085 90.198,31.700 90.625 C 31.315 91.051,30.745 91.895,30.432 92.500 C 30.120 93.105,29.715 93.600,29.532 93.600 C 29.350 93.600,29.200 93.870,29.200 94.200 C 29.200 94.530,29.065 94.800,28.899 94.800 C 28.734 94.800,28.156 95.655,27.615 96.700 C 27.074 97.745,26.219 99.271,25.716 100.092 C 25.212 100.913,24.800 101.858,24.800 102.192 C 24.800 102.526,24.620 102.800,24.400 102.800 C 24.180 102.800,24.000 103.160,24.000 103.600 C 24.000 104.040,23.820 104.400,23.600 104.400 C 23.380 104.400,23.200 104.760,23.200 105.200 C 23.200 105.640,23.020 106.000,22.800 106.000 C 22.580 106.000,22.400 106.320,22.400 106.712 C 22.400 107.103,22.040 107.683,21.600 108.000 C 21.160 108.317,20.800 108.897,20.800 109.288 C 20.800 109.680,20.620 110.000,20.400 110.000 C 20.180 110.000,20.000 110.265,20.000 110.588 C 20.000 110.911,19.640 111.817,19.200 112.600 C 18.760 113.383,18.400 114.289,18.400 114.612 C 18.400 114.935,18.220 115.200,18.000 115.200 C 17.780 115.200,17.600 115.560,17.600 116.000 C 17.600 116.440,17.420 116.800,17.200 116.800 C 16.980 116.800,16.800 117.160,16.800 117.600 C 16.800 118.040,16.620 118.400,16.400 118.400 C 16.180 118.400,16.000 118.760,16.000 119.200 C 16.000 119.640,15.820 120.000,15.600 120.000 C 15.380 120.000,15.200 120.540,15.200 121.200 C 15.200 121.860,15.020 122.400,14.800 122.400 C 14.580 122.400,14.400 122.760,14.400 123.200 C 14.400 123.640,14.220 124.000,14.000 124.000 C 13.780 124.000,13.600 124.355,13.600 124.788 C 13.600 125.221,13.240 126.217,12.800 127.000 C 12.360 127.783,12.000 128.779,12.000 129.212 C 12.000 129.645,11.820 130.000,11.600 130.000 C 11.380 130.000,11.200 130.362,11.200 130.805 C 11.200 131.248,11.024 131.923,10.809 132.305 C 10.062 133.632,8.400 139.224,8.400 140.408 C 8.400 141.064,8.220 141.600,8.000 141.600 C 7.780 141.600,7.600 142.140,7.600 142.800 C 7.600 143.460,7.420 144.000,7.200 144.000 C 6.980 144.000,6.800 144.630,6.800 145.400 C 6.800 146.170,6.620 146.800,6.400 146.800 C 6.180 146.800,6.000 147.430,6.000 148.200 C 6.000 148.970,5.820 149.600,5.600 149.600 C 5.380 149.600,5.200 150.320,5.200 151.200 C 5.200 152.080,5.020 152.800,4.800 152.800 C 4.580 152.800,4.400 153.700,4.400 154.800 C 4.400 155.900,4.220 156.800,4.000 156.800 C 3.780 156.800,3.600 157.520,3.600 158.400 C 3.600 159.280,3.420 160.000,3.200 160.000 C 2.980 160.000,2.800 160.889,2.800 161.976 C 2.800 163.063,2.620 164.064,2.400 164.200 C 2.180 164.336,2.000 165.517,2.000 166.824 C 2.000 168.141,1.822 169.200,1.600 169.200 C 1.372 169.200,1.200 170.389,1.200 171.967 C 1.200 173.824,1.036 174.788,0.700 174.900 C -0.032 175.144,-0.032 224.856,0.700 225.100 C 1.035 225.212,1.200 226.171,1.200 228.010 C 1.200 229.518,1.380 230.864,1.600 231.000 C 1.820 231.136,2.000 232.216,2.000 233.400 C 2.000 234.584,2.180 235.664,2.400 235.800 C 2.620 235.936,2.800 236.937,2.800 238.024 C 2.800 239.111,2.980 240.000,3.200 240.000 C 3.420 240.000,3.600 240.799,3.600 241.776 C 3.600 242.753,3.780 243.664,4.000 243.800 C 4.220 243.936,4.400 244.757,4.400 245.624 C 4.400 246.491,4.580 247.200,4.800 247.200 C 5.020 247.200,5.200 247.920,5.200 248.800 C 5.200 249.680,5.380 250.400,5.600 250.400 C 5.820 250.400,6.000 251.019,6.000 251.776 C 6.000 252.533,6.180 253.264,6.400 253.400 C 6.620 253.536,6.800 254.177,6.800 254.824 C 6.800 255.471,6.980 256.000,7.200 256.000 C 7.420 256.000,7.600 256.630,7.600 257.400 C 7.600 258.170,7.780 258.800,8.000 258.800 C 8.220 258.800,8.400 259.229,8.400 259.754 C 8.400 260.645,9.285 263.982,10.003 265.800 C 10.177 266.240,10.536 267.230,10.800 268.000 C 11.382 269.693,11.971 271.160,12.447 272.095 C 12.641 272.477,12.800 273.152,12.800 273.595 C 12.800 274.038,12.980 274.400,13.200 274.400 C 13.420 274.400,13.600 274.760,13.600 275.200 C 13.600 275.640,13.780 276.000,14.000 276.000 C 14.220 276.000,14.400 276.439,14.400 276.976 C 14.400 277.513,14.580 278.064,14.800 278.200 C 15.020 278.336,15.200 278.797,15.200 279.224 C 15.200 279.651,15.380 280.000,15.600 280.000 C 15.820 280.000,16.000 280.360,16.000 280.800 C 16.000 281.240,16.180 281.600,16.400 281.600 C 16.620 281.600,16.800 281.872,16.800 282.205 C 16.800 282.538,16.961 283.123,17.158 283.505 C 17.355 283.887,18.119 285.460,18.856 287.000 C 19.593 288.540,20.332 289.860,20.498 289.933 C 20.664 290.007,20.800 290.412,20.800 290.833 C 20.800 291.255,20.980 291.600,21.200 291.600 C 21.420 291.600,21.600 291.960,21.600 292.400 C 21.600 292.840,21.780 293.200,22.000 293.200 C 22.220 293.200,22.400 293.560,22.400 294.000 C 22.400 294.440,22.580 294.800,22.800 294.800 C 23.020 294.800,23.200 295.036,23.200 295.325 C 23.200 295.613,23.560 296.236,24.000 296.708 C 24.440 297.180,24.800 297.745,24.800 297.962 C 24.800 298.180,25.223 299.132,25.741 300.079 C 26.258 301.025,27.102 302.565,27.615 303.500 C 28.128 304.435,28.695 305.200,28.874 305.200 C 29.053 305.200,29.200 305.470,29.200 305.800 C 29.200 306.130,29.380 306.400,29.600 306.400 C 29.820 306.400,30.000 306.636,30.000 306.925 C 30.000 307.213,30.360 307.836,30.800 308.308 C 31.240 308.780,31.600 309.404,31.600 309.695 C 31.600 309.986,31.960 310.483,32.400 310.800 C 32.840 311.117,33.200 311.657,33.200 312.000 C 33.200 312.343,33.560 312.883,34.000 313.200 C 34.440 313.517,34.800 314.057,34.800 314.400 C 34.800 314.743,35.160 315.283,35.600 315.600 C 36.040 315.917,36.400 316.407,36.400 316.688 C 36.400 316.970,36.580 317.200,36.800 317.200 C 37.020 317.200,37.200 317.430,37.200 317.712 C 37.200 317.993,37.560 318.483,38.000 318.800 C 38.440 319.117,38.800 319.580,38.800 319.829 C 38.800 320.078,39.340 320.846,40.000 321.537 C 40.660 322.228,41.200 322.985,41.200 323.220 C 41.200 323.455,41.380 323.536,41.600 323.400 C 41.820 323.264,42.000 323.351,42.000 323.593 C 42.000 323.836,42.183 324.251,42.407 324.517 C 43.957 326.354,44.400 326.962,44.400 327.251 C 44.400 327.431,45.167 328.349,46.105 329.289 C 47.043 330.230,48.255 331.630,48.799 332.400 C 50.405 334.676,57.569 341.600,58.318 341.600 C 58.698 341.600,70.941 329.662,85.554 315.043 L 112.100 288.486 109.550 285.848 C 105.735 281.901,104.670 280.709,103.908 279.526 C 103.527 278.935,102.762 277.998,102.208 277.444 C 101.654 276.890,101.200 276.320,101.200 276.179 C 101.200 276.037,100.660 275.417,100.000 274.800 C 99.340 274.183,98.800 273.431,98.800 273.128 C 98.800 272.825,98.440 272.317,98.000 272.000 C 97.560 271.683,97.200 271.227,97.200 270.987 C 97.200 270.747,96.885 270.202,96.500 269.775 C 96.115 269.349,95.545 268.505,95.232 267.900 C 94.920 267.295,94.515 266.800,94.332 266.800 C 94.150 266.800,94.000 266.480,94.000 266.088 C 94.000 265.697,93.640 265.117,93.200 264.800 C 92.760 264.483,92.400 263.903,92.400 263.512 C 92.400 263.120,92.220 262.800,92.000 262.800 C 91.780 262.800,91.600 262.526,91.600 262.192 C 91.600 261.858,91.150 260.871,90.600 260.000 C 90.050 259.129,89.600 258.232,89.600 258.008 C 89.600 257.784,89.420 257.600,89.200 257.600 C 88.980 257.600,88.800 257.240,88.800 256.800 C 88.800 256.360,88.620 256.000,88.400 256.000 C 88.180 256.000,88.000 255.640,88.000 255.200 C 88.000 254.760,87.820 254.400,87.600 254.400 C 87.380 254.400,87.200 254.040,87.200 253.600 C 87.200 253.160,87.020 252.800,86.800 252.800 C 86.580 252.800,86.400 252.451,86.400 252.024 C 86.400 251.597,86.220 251.136,86.000 251.000 C 85.780 250.864,85.600 250.313,85.600 249.776 C 85.600 249.239,85.420 248.800,85.200 248.800 C 84.980 248.800,84.800 248.440,84.800 248.000 C 84.800 247.560,84.620 247.200,84.400 247.200 C 84.180 247.200,84.000 246.761,84.000 246.224 C 84.000 245.687,83.820 245.136,83.600 245.000 C 83.380 244.864,83.200 244.403,83.200 243.976 C 83.200 243.549,83.020 243.200,82.800 243.200 C 82.580 243.200,82.400 242.750,82.400 242.200 C 82.400 241.650,82.220 241.200,82.000 241.200 C 81.780 241.200,81.600 240.660,81.600 240.000 C 81.600 239.340,81.420 238.800,81.200 238.800 C 80.980 238.800,80.800 238.260,80.800 237.600 C 80.800 236.940,80.620 236.400,80.400 236.400 C 80.180 236.400,80.000 235.770,80.000 235.000 C 80.000 234.230,79.820 233.600,79.600 233.600 C 79.380 233.600,79.200 232.970,79.200 232.200 C 79.200 231.430,79.020 230.800,78.800 230.800 C 78.580 230.800,78.400 230.080,78.400 229.200 C 78.400 228.320,78.220 227.600,78.000 227.600 C 77.780 227.600,77.600 226.790,77.600 225.800 C 77.600 224.810,77.420 224.000,77.200 224.000 C 76.978 224.000,76.800 222.933,76.800 221.600 C 76.800 220.267,76.622 219.200,76.400 219.200 C 76.172 219.200,76.000 218.011,76.000 216.433 C 76.000 214.803,75.822 213.607,75.567 213.522 C 74.956 213.319,74.953 186.682,75.564 186.479 C 75.822 186.393,76.000 185.216,76.000 183.590 C 76.000 182.082,76.180 180.736,76.400 180.600 C 76.620 180.464,76.800 179.373,76.800 178.176 C 76.800 176.979,76.980 176.000,77.200 176.000 C 77.420 176.000,77.600 175.291,77.600 174.424 C 77.600 173.557,77.780 172.736,78.000 172.600 C 78.220 172.464,78.400 171.643,78.400 170.776 C 78.400 169.909,78.580 169.200,78.800 169.200 C 79.020 169.200,79.200 168.660,79.200 168.000 C 79.200 167.340,79.380 166.800,79.600 166.800 C 79.820 166.800,80.000 166.080,80.000 165.200 C 80.000 164.320,80.180 163.600,80.400 163.600 C 80.620 163.600,80.800 163.060,80.800 162.400 C 80.800 161.740,80.980 161.200,81.200 161.200 C 81.420 161.200,81.600 160.660,81.600 160.000 C 81.600 159.340,81.780 158.800,82.000 158.800 C 82.220 158.800,82.400 158.350,82.400 157.800 C 82.400 157.250,82.580 156.800,82.800 156.800 C 83.020 156.800,83.200 156.451,83.200 156.024 C 83.200 155.597,83.380 155.136,83.600 155.000 C 83.820 154.864,84.000 154.313,84.000 153.776 C 84.000 153.239,84.180 152.800,84.400 152.800 C 84.620 152.800,84.800 152.440,84.800 152.000 C 84.800 151.560,84.980 151.200,85.200 151.200 C 85.420 151.200,85.600 150.840,85.600 150.400 C 85.600 149.960,85.747 149.600,85.928 149.600 C 86.108 149.600,86.500 148.700,86.800 147.600 C 87.100 146.500,87.492 145.600,87.672 145.600 C 87.853 145.600,88.000 145.451,88.000 145.269 C 88.000 145.088,88.810 143.436,89.800 141.600 C 90.790 139.764,91.600 138.105,91.600 137.914 C 91.600 137.723,91.960 137.180,92.400 136.708 C 92.840 136.236,93.200 135.613,93.200 135.325 C 93.200 135.036,93.380 134.800,93.600 134.800 C 93.820 134.800,94.000 134.480,94.000 134.088 C 94.000 133.697,94.360 133.117,94.800 132.800 C 95.240 132.483,95.600 131.943,95.600 131.600 C 95.600 131.257,95.960 130.717,96.400 130.400 C 96.840 130.083,97.200 129.591,97.200 129.308 C 97.200 129.025,97.740 128.228,98.400 127.537 C 99.060 126.846,99.600 126.110,99.600 125.901 C 99.600 125.692,100.140 125.017,100.800 124.400 C 101.460 123.783,102.000 123.153,102.000 123.000 C 102.000 122.847,102.502 122.244,103.115 121.660 C 103.729 121.077,104.671 119.970,105.208 119.200 C 106.292 117.646,107.003 116.819,109.500 114.202 C 110.435 113.223,111.192 112.281,111.182 112.111 C 111.161 111.735,58.303 58.391,57.958 58.396 C 57.825 58.398,56.289 59.795,54.544 61.500 " stroke="none" fill="#f8c834" fill-rule="evenodd"></path><path id="path1" d="M178.601 0.276 C 176.842 0.365,175.231 0.609,175.021 0.819 C 174.812 1.028,173.416 1.200,171.920 1.200 C 170.373 1.200,169.200 1.373,169.200 1.600 C 169.200 1.822,168.144 2.000,166.833 2.000 C 165.532 2.000,164.407 2.170,164.333 2.378 C 164.260 2.586,163.264 2.797,162.120 2.848 C 160.976 2.899,160.132 3.089,160.244 3.271 C 160.356 3.452,159.637 3.600,158.647 3.600 C 157.657 3.600,156.736 3.780,156.600 4.000 C 156.464 4.220,155.553 4.400,154.576 4.400 C 153.599 4.400,152.800 4.580,152.800 4.800 C 152.800 5.020,152.069 5.200,151.176 5.200 C 150.283 5.200,149.652 5.361,149.774 5.558 C 149.896 5.755,149.322 6.018,148.498 6.143 C 144.858 6.693,144.020 6.909,144.227 7.243 C 144.348 7.440,143.897 7.600,143.224 7.600 C 142.551 7.600,142.000 7.761,142.000 7.958 C 142.000 8.278,139.752 8.754,137.908 8.824 C 137.527 8.839,137.112 9.019,136.984 9.225 C 136.857 9.431,136.324 9.600,135.800 9.600 C 135.276 9.600,134.736 9.780,134.600 10.000 C 134.464 10.220,133.913 10.400,133.376 10.400 C 132.839 10.400,132.400 10.580,132.400 10.800 C 132.400 11.020,131.860 11.200,131.200 11.200 C 130.540 11.200,130.000 11.380,130.000 11.600 C 130.000 11.820,129.671 12.000,129.268 12.000 C 128.865 12.000,127.664 12.441,126.598 12.981 C 125.533 13.520,124.512 13.869,124.331 13.757 C 124.149 13.645,124.000 13.743,124.000 13.976 C 124.000 14.209,123.655 14.400,123.233 14.400 C 122.812 14.400,122.407 14.578,122.333 14.797 C 122.260 15.015,121.718 15.233,121.129 15.281 C 120.540 15.330,120.145 15.512,120.252 15.685 C 120.360 15.858,120.248 16.000,120.004 16.000 C 119.761 16.000,118.816 16.360,117.906 16.800 C 116.995 17.240,116.014 17.600,115.725 17.600 C 115.436 17.600,115.200 17.780,115.200 18.000 C 115.200 18.220,114.840 18.400,114.400 18.400 C 113.960 18.400,113.599 18.535,113.597 18.700 C 113.593 19.106,111.614 20.000,110.720 20.000 C 110.324 20.000,110.000 20.180,110.000 20.400 C 110.000 20.620,109.730 20.800,109.400 20.800 C 109.070 20.800,108.800 20.980,108.800 21.200 C 108.800 21.420,108.530 21.600,108.200 21.600 C 107.870 21.600,107.600 21.780,107.600 22.000 C 107.600 22.220,107.240 22.400,106.800 22.400 C 106.360 22.400,106.000 22.580,106.000 22.800 C 106.000 23.020,105.640 23.200,105.200 23.200 C 104.760 23.200,104.400 23.380,104.400 23.600 C 104.400 23.820,104.055 24.000,103.633 24.000 C 103.212 24.000,102.807 24.135,102.733 24.300 C 102.660 24.465,101.520 25.140,100.200 25.800 C 98.880 26.460,97.451 27.315,97.025 27.700 C 96.280 28.372,95.780 28.561,95.070 28.437 C 94.889 28.406,94.855 28.565,94.994 28.790 C 95.133 29.016,94.967 29.200,94.624 29.200 C 94.281 29.200,93.670 29.515,93.266 29.900 C 92.863 30.285,92.188 30.797,91.766 31.038 C 91.345 31.278,90.552 31.728,90.004 32.038 C 89.457 32.347,88.716 32.915,88.357 33.300 C 87.999 33.685,87.501 34.000,87.249 34.000 C 86.998 34.000,86.228 34.540,85.537 35.200 C 84.846 35.860,84.038 36.400,83.741 36.400 C 83.443 36.400,83.195 36.535,83.189 36.700 C 83.183 36.865,82.463 37.441,81.589 37.980 C 80.715 38.520,80.000 39.105,80.000 39.280 C 80.000 39.456,79.610 39.600,79.133 39.600 C 78.657 39.600,78.381 39.714,78.521 39.854 C 78.660 39.994,78.105 40.631,77.287 41.271 C 76.469 41.910,75.485 42.694,75.100 43.013 C 74.715 43.332,74.400 43.485,74.400 43.354 C 74.400 43.223,73.884 43.668,73.253 44.344 C 72.622 45.019,71.992 45.458,71.853 45.319 C 71.714 45.180,71.600 45.307,71.600 45.600 C 71.600 45.893,71.505 46.039,71.390 45.923 C 71.274 45.808,69.879 46.983,68.290 48.535 C 66.700 50.087,65.355 51.321,65.300 51.278 C 64.959 51.011,64.396 51.270,64.600 51.600 C 64.736 51.820,64.697 52.000,64.513 52.000 C 64.329 52.000,63.148 52.990,61.889 54.200 C 60.629 55.410,59.729 56.400,59.889 56.400 C 60.048 56.400,59.778 56.680,59.289 57.023 C 57.826 58.048,57.468 57.652,84.931 85.381 L 111.455 112.162 113.698 109.981 C 114.931 108.781,116.509 107.350,117.205 106.800 C 117.900 106.250,118.814 105.485,119.235 105.100 C 119.656 104.715,120.135 104.398,120.300 104.396 C 120.465 104.394,121.025 103.854,121.545 103.196 C 122.065 102.538,122.668 102.000,122.885 102.000 C 123.102 102.000,123.775 101.469,124.382 100.819 C 124.989 100.170,125.734 99.585,126.039 99.519 C 126.343 99.454,127.071 98.905,127.657 98.300 C 128.242 97.695,128.969 97.200,129.272 97.200 C 129.575 97.200,130.083 96.840,130.400 96.400 C 130.717 95.960,131.257 95.600,131.600 95.600 C 131.943 95.600,132.483 95.240,132.800 94.800 C 133.117 94.360,133.697 94.000,134.088 94.000 C 134.480 94.000,134.800 93.842,134.800 93.649 C 134.800 93.455,135.340 93.073,136.000 92.800 C 136.660 92.527,137.200 92.145,137.200 91.951 C 137.200 91.758,137.560 91.600,138.000 91.600 C 138.440 91.600,138.800 91.390,138.800 91.133 C 138.800 90.877,138.915 90.781,139.055 90.922 C 139.195 91.062,139.780 90.862,140.355 90.478 C 140.930 90.095,142.342 89.335,143.494 88.790 C 144.645 88.246,145.590 87.665,145.594 87.500 C 145.597 87.335,146.061 87.200,146.624 87.200 C 147.204 87.200,147.540 87.027,147.400 86.800 C 147.256 86.567,147.663 86.400,148.376 86.400 C 149.049 86.400,149.600 86.220,149.600 86.000 C 149.600 85.780,149.960 85.600,150.400 85.600 C 150.840 85.600,151.200 85.420,151.200 85.200 C 151.200 84.980,151.560 84.800,152.000 84.800 C 152.440 84.800,152.800 84.620,152.800 84.400 C 152.800 84.180,153.351 84.000,154.024 84.000 C 154.737 84.000,155.144 83.833,155.000 83.600 C 154.860 83.373,155.196 83.200,155.776 83.200 C 156.339 83.200,156.800 83.020,156.800 82.800 C 156.800 82.580,157.250 82.400,157.800 82.400 C 158.350 82.400,158.800 82.220,158.800 82.000 C 158.800 81.780,159.340 81.600,160.000 81.600 C 160.660 81.600,161.200 81.420,161.200 81.200 C 161.200 80.980,161.740 80.800,162.400 80.800 C 163.060 80.800,163.600 80.620,163.600 80.400 C 163.600 80.180,164.320 80.000,165.200 80.000 C 166.080 80.000,166.800 79.820,166.800 79.600 C 166.800 79.380,167.340 79.200,168.000 79.200 C 168.660 79.200,169.200 79.020,169.200 78.800 C 169.200 78.580,169.909 78.400,170.776 78.400 C 171.643 78.400,172.464 78.220,172.600 78.000 C 172.736 77.780,173.542 77.600,174.390 77.600 C 175.239 77.600,175.993 77.430,176.067 77.222 C 176.140 77.015,177.227 76.804,178.482 76.755 C 179.737 76.705,180.671 76.515,180.558 76.332 C 180.445 76.150,181.724 76.000,183.400 76.000 C 185.330 76.000,186.357 75.853,186.200 75.600 C 186.041 75.342,187.985 75.167,191.676 75.108 C 200.825 74.961,213.388 75.274,213.533 75.652 C 213.607 75.844,214.901 76.000,216.410 76.000 C 217.918 76.000,219.264 76.180,219.400 76.400 C 219.536 76.620,220.627 76.800,221.824 76.800 C 223.021 76.800,224.000 76.980,224.000 77.200 C 224.000 77.420,224.810 77.600,225.800 77.600 C 226.790 77.600,227.600 77.780,227.600 78.000 C 227.600 78.220,228.320 78.400,229.200 78.400 C 230.080 78.400,230.800 78.580,230.800 78.800 C 230.800 79.020,231.520 79.200,232.400 79.200 C 233.280 79.200,234.000 79.380,234.000 79.600 C 234.000 79.820,234.540 80.000,235.200 80.000 C 235.860 80.000,236.400 80.180,236.400 80.400 C 236.400 80.620,236.940 80.800,237.600 80.800 C 238.260 80.800,238.800 80.980,238.800 81.200 C 238.800 81.420,239.340 81.600,240.000 81.600 C 240.660 81.600,241.200 81.780,241.200 82.000 C 241.200 82.220,241.650 82.400,242.200 82.400 C 242.750 82.400,243.200 82.580,243.200 82.800 C 243.200 83.020,243.751 83.200,244.424 83.200 C 245.137 83.200,245.544 83.367,245.400 83.600 C 245.260 83.827,245.596 84.000,246.176 84.000 C 246.739 84.000,247.200 84.180,247.200 84.400 C 247.200 84.620,247.661 84.800,248.224 84.800 C 248.787 84.800,249.160 84.942,249.052 85.115 C 248.945 85.288,249.340 85.470,249.929 85.519 C 250.518 85.567,251.060 85.785,251.133 86.003 C 251.207 86.222,251.612 86.400,252.033 86.400 C 252.455 86.400,252.800 86.580,252.800 86.800 C 252.800 87.020,253.160 87.200,253.600 87.200 C 254.040 87.200,254.400 87.380,254.400 87.600 C 254.400 87.820,254.760 88.000,255.200 88.000 C 255.640 88.000,256.000 88.180,256.000 88.400 C 256.000 88.620,256.360 88.800,256.800 88.800 C 257.240 88.800,257.600 88.980,257.600 89.200 C 257.600 89.420,257.845 89.600,258.144 89.600 C 258.443 89.600,259.351 90.050,260.162 90.600 C 260.972 91.150,261.898 91.600,262.218 91.600 C 262.538 91.600,262.800 91.780,262.800 92.000 C 262.800 92.220,263.160 92.400,263.600 92.400 C 264.040 92.400,264.400 92.580,264.400 92.800 C 264.400 93.020,264.681 93.200,265.024 93.200 C 265.367 93.200,265.536 93.380,265.400 93.600 C 265.264 93.820,265.523 94.000,265.976 94.000 C 266.429 94.000,266.800 94.150,266.800 94.332 C 266.800 94.515,267.295 94.920,267.900 95.232 C 268.505 95.545,269.349 96.115,269.775 96.500 C 270.202 96.885,270.787 97.200,271.075 97.200 C 271.364 97.200,271.600 97.350,271.600 97.532 C 271.600 97.715,272.095 98.120,272.700 98.432 C 273.305 98.745,274.277 99.495,274.860 100.100 C 275.444 100.705,276.029 101.200,276.160 101.200 C 276.292 101.200,277.141 101.920,278.048 102.800 C 278.955 103.680,279.861 104.400,280.062 104.400 C 280.262 104.400,281.046 105.020,281.804 105.777 C 283.671 107.645,286.422 108.800,289.001 108.800 C 292.994 108.800,293.813 108.248,301.598 100.314 C 305.546 96.291,309.121 92.665,309.543 92.255 C 310.166 91.650,323.080 78.750,325.855 75.961 C 326.265 75.549,329.165 72.694,332.300 69.616 C 335.435 66.538,338.000 63.746,338.000 63.410 C 338.000 63.075,338.180 62.800,338.400 62.800 C 338.639 62.800,338.800 61.267,338.800 59.000 C 338.800 56.733,338.639 55.200,338.400 55.200 C 338.180 55.200,338.000 54.926,338.000 54.591 C 338.000 53.901,334.511 50.294,332.400 48.801 C 331.630 48.256,330.230 47.043,329.289 46.105 C 328.349 45.167,327.423 44.400,327.232 44.400 C 327.041 44.400,326.281 43.859,325.542 43.199 C 323.610 41.469,323.264 41.200,322.977 41.200 C 322.836 41.200,322.217 40.660,321.600 40.000 C 320.983 39.340,320.280 38.800,320.036 38.800 C 319.792 38.800,319.028 38.260,318.337 37.600 C 317.646 36.940,316.878 36.400,316.629 36.400 C 316.380 36.400,315.917 36.040,315.600 35.600 C 315.283 35.160,314.743 34.800,314.400 34.800 C 314.057 34.800,313.517 34.440,313.200 34.000 C 312.883 33.560,312.343 33.200,312.000 33.200 C 311.657 33.200,311.117 32.840,310.800 32.400 C 310.483 31.960,309.943 31.600,309.600 31.600 C 309.257 31.600,308.717 31.240,308.400 30.800 C 308.083 30.360,307.671 30.000,307.484 30.000 C 307.297 30.000,306.359 29.460,305.400 28.800 C 304.441 28.140,303.478 27.600,303.261 27.600 C 303.044 27.600,302.807 27.465,302.733 27.300 C 302.523 26.826,298.562 24.800,297.846 24.800 C 297.491 24.800,297.200 24.620,297.200 24.400 C 297.200 24.180,296.964 24.000,296.675 24.000 C 296.387 24.000,295.764 23.640,295.292 23.200 C 294.820 22.760,294.156 22.400,293.817 22.400 C 293.478 22.400,293.200 22.220,293.200 22.000 C 293.200 21.780,292.855 21.600,292.433 21.600 C 292.012 21.600,291.607 21.463,291.533 21.296 C 291.460 21.129,289.780 20.211,287.800 19.255 C 285.820 18.300,283.887 17.357,283.505 17.159 C 283.123 16.962,282.538 16.800,282.205 16.800 C 281.872 16.800,281.600 16.620,281.600 16.400 C 281.600 16.180,281.240 16.000,280.800 16.000 C 280.360 16.000,280.000 15.820,280.000 15.600 C 280.000 15.380,279.651 15.200,279.224 15.200 C 278.797 15.200,278.336 15.020,278.200 14.800 C 278.064 14.580,277.513 14.400,276.976 14.400 C 276.439 14.400,276.000 14.220,276.000 14.000 C 276.000 13.780,275.640 13.600,275.200 13.600 C 274.760 13.600,274.400 13.420,274.400 13.200 C 274.400 12.980,273.961 12.800,273.424 12.800 C 272.887 12.800,272.336 12.620,272.200 12.400 C 272.064 12.180,271.528 12.000,271.010 12.000 C 270.491 12.000,270.007 11.822,269.933 11.603 C 269.860 11.385,269.305 11.166,268.700 11.116 C 268.095 11.066,267.600 10.885,267.600 10.713 C 267.600 10.541,267.328 10.400,266.995 10.400 C 266.662 10.400,266.077 10.237,265.695 10.037 C 264.553 9.440,260.778 8.400,259.754 8.400 C 259.229 8.400,258.800 8.220,258.800 8.000 C 258.800 7.780,258.170 7.600,257.400 7.600 C 256.630 7.600,256.000 7.420,256.000 7.200 C 256.000 6.980,255.471 6.800,254.824 6.800 C 254.177 6.800,253.536 6.620,253.400 6.400 C 253.264 6.180,252.533 6.000,251.776 6.000 C 251.019 6.000,250.400 5.857,250.400 5.682 C 250.400 5.507,249.725 5.319,248.900 5.264 C 248.075 5.210,247.340 4.993,247.267 4.782 C 247.193 4.572,246.248 4.400,245.167 4.400 C 244.085 4.400,243.200 4.220,243.200 4.000 C 243.200 3.780,242.491 3.600,241.624 3.600 C 240.757 3.600,239.936 3.420,239.800 3.200 C 239.664 2.980,238.764 2.800,237.800 2.800 C 236.836 2.800,235.936 2.620,235.800 2.400 C 235.664 2.180,234.584 2.000,233.400 2.000 C 232.216 2.000,231.136 1.820,231.000 1.600 C 230.864 1.380,229.518 1.200,228.010 1.200 C 226.193 1.200,225.211 1.034,225.103 0.708 C 224.940 0.221,186.744 -0.133,178.601 0.276 " stroke="none" fill="#fc2940" fill-rule="evenodd"></path><path id="path2" d="M84.912 315.550 C 67.229 333.319,58.586 342.271,58.912 342.478 C 59.180 342.648,59.272 342.791,59.115 342.794 C 58.676 342.803,66.377 350.400,66.826 350.400 C 67.043 350.400,68.031 351.210,69.021 352.200 C 70.011 353.190,70.996 354.000,71.211 354.000 C 71.425 354.000,71.600 354.281,71.600 354.624 C 71.600 354.967,71.757 355.150,71.948 355.032 C 72.140 354.913,72.725 355.188,73.248 355.643 C 73.772 356.097,74.809 356.949,75.553 357.535 C 76.297 358.121,77.557 359.181,78.353 359.891 C 79.149 360.601,80.010 361.186,80.267 361.191 C 80.523 361.196,80.793 361.347,80.867 361.528 C 80.940 361.708,82.170 362.644,83.600 363.608 C 85.030 364.572,86.549 365.685,86.975 366.081 C 87.402 366.476,87.904 366.800,88.092 366.800 C 88.280 366.800,88.820 367.160,89.292 367.600 C 89.764 368.040,90.387 368.400,90.675 368.400 C 90.964 368.400,91.200 368.580,91.200 368.800 C 91.200 369.020,91.436 369.200,91.725 369.200 C 92.013 369.200,92.606 369.515,93.042 369.900 C 94.006 370.752,95.479 371.648,98.471 373.202 C 99.720 373.851,100.855 374.566,100.994 374.791 C 101.133 375.016,101.597 375.200,102.024 375.200 C 102.451 375.200,102.800 375.380,102.800 375.600 C 102.800 375.820,103.160 376.000,103.600 376.000 C 104.040 376.000,104.400 376.180,104.400 376.400 C 104.400 376.620,104.760 376.800,105.200 376.800 C 105.640 376.800,106.000 376.980,106.000 377.200 C 106.000 377.420,106.281 377.600,106.624 377.600 C 106.993 377.600,107.131 377.788,106.962 378.062 C 106.793 378.336,106.851 378.415,107.106 378.258 C 107.342 378.112,107.807 378.264,108.139 378.596 C 108.471 378.928,108.953 379.200,109.210 379.200 C 109.466 379.200,110.166 379.549,110.765 379.975 C 111.364 380.402,112.607 380.985,113.527 381.273 C 114.447 381.560,115.200 381.931,115.200 382.097 C 115.200 382.264,115.560 382.400,116.000 382.400 C 116.440 382.400,116.800 382.580,116.800 382.800 C 116.800 383.020,117.160 383.200,117.600 383.200 C 118.040 383.200,118.400 383.380,118.400 383.600 C 118.400 383.820,118.749 384.000,119.176 384.000 C 119.603 384.000,120.064 384.180,120.200 384.400 C 120.336 384.620,120.797 384.800,121.224 384.800 C 121.651 384.800,122.000 384.980,122.000 385.200 C 122.000 385.420,122.450 385.600,123.000 385.600 C 123.550 385.600,124.000 385.741,124.000 385.913 C 124.000 386.085,124.855 386.475,125.900 386.780 C 126.945 387.085,128.070 387.463,128.400 387.621 C 130.218 388.487,131.081 388.834,131.800 388.985 C 133.044 389.246,135.290 390.054,136.490 390.672 C 137.090 390.981,137.630 391.211,137.690 391.184 C 137.971 391.057,143.019 392.282,144.200 392.763 C 145.896 393.455,147.893 394.000,148.728 394.000 C 149.208 394.000,149.600 394.145,149.600 394.322 C 149.600 394.499,150.365 394.688,151.300 394.743 C 152.235 394.798,153.171 395.013,153.380 395.221 C 153.589 395.430,154.343 395.600,155.056 395.600 C 155.769 395.600,156.464 395.780,156.600 396.000 C 156.736 396.220,157.542 396.400,158.390 396.400 C 159.239 396.400,159.993 396.568,160.067 396.773 C 160.140 396.978,161.310 397.200,162.666 397.266 C 164.023 397.331,165.047 397.523,164.943 397.693 C 164.838 397.862,165.753 398.000,166.976 398.000 C 168.199 398.000,169.200 398.175,169.200 398.388 C 169.200 398.601,169.830 398.752,170.600 398.723 C 171.507 398.689,172.000 398.474,172.000 398.112 C 172.000 397.804,172.183 397.666,172.407 397.804 C 172.630 397.942,172.692 398.251,172.544 398.491 C 172.366 398.778,172.585 398.845,173.188 398.687 C 173.691 398.556,174.484 398.683,174.951 398.969 C 175.992 399.608,178.075 399.576,178.294 398.918 C 178.395 398.615,178.146 398.495,177.627 398.595 C 177.172 398.682,176.800 398.565,176.800 398.334 C 176.800 398.102,176.487 398.031,176.100 398.174 C 175.715 398.317,182.491 391.334,191.158 382.657 L 206.917 366.879 209.958 366.692 C 225.916 365.706,250.506 359.769,264.268 353.579 C 265.220 353.151,266.855 352.425,267.900 351.966 C 283.318 345.198,297.540 335.888,311.673 323.314 C 314.462 320.831,316.891 318.800,317.070 318.800 C 317.249 318.800,322.654 324.057,329.082 330.482 C 335.510 336.907,340.868 342.066,340.988 341.945 C 341.340 341.594,288.550 289.600,287.842 289.600 C 287.489 289.600,287.200 289.780,287.200 290.000 C 287.200 290.220,286.936 290.400,286.614 290.400 C 286.292 290.400,285.835 290.760,285.600 291.200 C 285.365 291.640,284.929 292.000,284.633 292.000 C 284.336 292.000,283.999 292.360,283.884 292.800 C 283.769 293.240,283.388 293.600,283.037 293.600 C 282.687 293.600,282.400 293.791,282.400 294.024 C 282.400 294.257,282.265 294.380,282.100 294.298 C 281.776 294.137,280.019 295.824,280.007 296.307 C 280.003 296.468,279.826 296.600,279.613 296.600 C 279.400 296.600,278.858 296.915,278.408 297.300 C 277.959 297.685,277.402 298.000,277.172 298.000 C 276.941 298.000,276.864 298.180,277.000 298.400 C 277.136 298.620,276.956 298.800,276.600 298.800 C 276.244 298.800,276.064 298.980,276.200 299.200 C 276.336 299.420,276.193 299.600,275.883 299.600 C 275.573 299.600,274.794 300.095,274.152 300.700 C 273.511 301.305,272.494 302.055,271.893 302.368 C 271.292 302.680,270.800 303.085,270.800 303.268 C 270.800 303.450,270.564 303.600,270.275 303.600 C 269.987 303.600,269.364 303.960,268.892 304.400 C 268.420 304.840,267.745 305.200,267.393 305.200 C 267.041 305.200,266.864 305.380,267.000 305.600 C 267.136 305.820,266.967 306.000,266.624 306.000 C 266.281 306.000,266.000 306.180,266.000 306.400 C 266.000 306.620,265.655 306.800,265.233 306.800 C 264.812 306.800,264.407 306.967,264.333 307.170 C 264.260 307.374,263.931 307.599,263.601 307.670 C 263.272 307.742,262.817 308.035,262.590 308.322 C 262.364 308.610,261.823 308.904,261.389 308.975 C 260.955 309.047,260.643 309.301,260.695 309.539 C 260.748 309.777,260.523 309.868,260.195 309.743 C 259.868 309.617,259.600 309.714,259.600 309.957 C 259.600 310.201,259.262 310.400,258.849 310.400 C 258.436 310.400,257.879 310.664,257.611 310.987 C 257.343 311.310,257.006 311.549,256.862 311.517 C 256.404 311.418,254.400 312.514,254.400 312.864 C 254.400 313.049,254.265 313.162,254.100 313.115 C 253.935 313.068,253.350 313.279,252.800 313.583 C 252.250 313.887,251.710 314.133,251.600 314.130 C 251.490 314.127,250.770 314.395,250.000 314.726 C 249.230 315.056,248.300 315.311,247.932 315.291 C 247.565 315.271,247.167 315.509,247.047 315.821 C 246.915 316.165,246.563 316.284,246.150 316.125 C 245.689 315.948,245.562 316.015,245.758 316.332 C 245.955 316.650,245.656 316.800,244.824 316.800 C 244.151 316.800,243.600 316.980,243.600 317.200 C 243.600 317.420,243.161 317.600,242.624 317.600 C 242.087 317.600,241.536 317.780,241.400 318.000 C 241.264 318.220,240.713 318.400,240.176 318.400 C 239.639 318.400,239.200 318.580,239.200 318.800 C 239.200 319.020,238.696 319.200,238.080 319.200 C 237.464 319.200,236.781 319.379,236.562 319.598 C 236.344 319.816,235.678 320.036,235.082 320.085 C 234.487 320.134,234.000 320.315,234.000 320.487 C 234.000 320.659,233.381 320.800,232.624 320.800 C 231.867 320.800,231.148 320.960,231.027 321.156 C 230.906 321.351,230.176 321.621,229.404 321.756 C 228.632 321.890,227.368 322.110,226.596 322.244 C 225.824 322.379,225.094 322.649,224.973 322.844 C 224.852 323.040,223.809 323.200,222.656 323.200 C 221.503 323.200,220.389 323.370,220.180 323.578 C 219.971 323.785,218.411 323.991,216.712 324.036 C 215.014 324.080,213.720 324.270,213.836 324.458 C 213.952 324.646,211.707 324.800,208.847 324.800 C 205.987 324.800,203.563 324.937,203.459 325.105 C 203.355 325.272,201.680 325.288,199.735 325.139 C 197.791 324.991,193.916 324.854,191.124 324.835 C 188.210 324.815,185.942 324.630,185.800 324.400 C 185.664 324.180,184.404 324.000,183.000 324.000 C 181.596 324.000,180.336 323.820,180.200 323.600 C 180.064 323.380,179.063 323.200,177.976 323.200 C 176.889 323.200,176.000 323.020,176.000 322.800 C 176.000 322.580,175.201 322.400,174.224 322.400 C 173.247 322.400,172.336 322.220,172.200 322.000 C 172.064 321.780,171.333 321.600,170.576 321.600 C 169.819 321.600,169.200 321.420,169.200 321.200 C 169.200 320.980,168.581 320.800,167.824 320.800 C 167.067 320.800,166.336 320.620,166.200 320.400 C 166.064 320.180,165.423 320.000,164.776 320.000 C 164.129 320.000,163.600 319.820,163.600 319.600 C 163.600 319.380,163.060 319.200,162.400 319.200 C 161.740 319.200,161.200 319.020,161.200 318.800 C 161.200 318.580,160.660 318.400,160.000 318.400 C 159.340 318.400,158.800 318.220,158.800 318.000 C 158.800 317.780,158.350 317.600,157.800 317.600 C 157.250 317.600,156.800 317.420,156.800 317.200 C 156.800 316.980,156.438 316.800,155.995 316.800 C 155.552 316.800,154.877 316.635,154.495 316.434 C 152.690 315.481,150.556 314.643,150.146 314.724 C 149.896 314.774,149.579 314.522,149.442 314.166 C 149.302 313.801,148.937 313.615,148.608 313.742 C 148.286 313.865,147.761 313.704,147.440 313.383 C 147.119 313.062,146.495 312.800,146.052 312.800 C 145.609 312.800,145.134 312.617,144.996 312.393 C 144.858 312.170,144.596 312.079,144.414 312.191 C 144.233 312.304,143.981 312.126,143.854 311.798 C 143.728 311.469,143.349 311.200,143.013 311.200 C 142.676 311.200,142.400 311.001,142.400 310.757 C 142.400 310.514,142.130 310.418,141.800 310.545 C 141.470 310.671,141.200 310.622,141.200 310.436 C 141.200 310.250,140.660 309.873,140.000 309.600 C 139.340 309.327,138.800 308.945,138.800 308.751 C 138.800 308.558,138.528 308.400,138.195 308.400 C 137.490 308.400,136.172 307.691,135.060 306.714 C 134.630 306.336,134.125 306.123,133.937 306.239 C 133.748 306.356,133.486 306.169,133.354 305.825 C 133.222 305.481,132.774 305.200,132.357 305.200 C 131.941 305.200,131.600 305.020,131.600 304.800 C 131.600 304.580,131.319 304.400,130.976 304.400 C 130.633 304.400,130.464 304.220,130.600 304.000 C 130.736 303.780,130.561 303.600,130.210 303.600 C 129.860 303.600,129.045 303.060,128.400 302.400 C 127.755 301.740,127.028 301.200,126.785 301.200 C 126.542 301.200,126.105 300.975,125.813 300.700 C 125.522 300.425,124.700 299.750,123.987 299.200 C 123.274 298.650,122.328 297.801,121.885 297.314 C 121.442 296.826,120.899 296.539,120.678 296.675 C 120.456 296.813,120.399 296.724,120.551 296.479 C 120.709 296.223,120.352 295.787,119.713 295.453 C 119.101 295.133,117.745 294.049,116.700 293.043 C 115.655 292.037,114.800 291.307,114.800 291.421 C 114.800 291.535,114.241 290.992,113.559 290.214 C 112.876 289.436,112.111 288.830,111.859 288.866 C 111.606 288.902,99.480 300.910,84.912 315.550 M112.986 290.423 C 112.800 290.724,119.747 297.436,120.864 298.034 C 121.291 298.263,122.146 298.979,122.764 299.625 C 123.381 300.271,124.064 300.800,124.281 300.800 C 124.498 300.800,125.002 301.160,125.400 301.600 C 125.798 302.040,126.300 302.400,126.515 302.400 C 126.730 302.400,127.197 302.724,127.553 303.119 C 128.394 304.054,130.498 305.518,131.228 305.676 C 131.543 305.744,132.070 306.083,132.400 306.428 C 133.269 307.338,137.580 310.171,139.100 310.831 C 139.815 311.141,140.400 311.531,140.400 311.698 C 140.400 311.864,140.760 312.000,141.200 312.000 C 142.839 312.000,141.683 313.313,127.902 327.098 C 115.036 339.967,112.800 341.997,112.800 340.800 C 112.800 340.580,112.522 340.400,112.183 340.400 C 111.844 340.400,111.180 340.040,110.708 339.600 C 110.236 339.160,109.613 338.800,109.325 338.800 C 109.036 338.800,108.800 338.620,108.800 338.400 C 108.800 338.180,108.564 338.000,108.275 338.000 C 107.987 338.000,107.402 337.676,106.975 337.281 C 106.549 336.885,105.082 335.803,103.715 334.875 C 97.278 330.510,91.889 326.163,86.412 320.915 L 83.400 318.029 97.386 304.026 C 108.030 293.369,111.583 290.041,112.257 290.096 C 112.744 290.137,113.072 290.284,112.986 290.423 M323.656 356.813 C 323.136 357.246,322.898 357.600,323.127 357.600 C 323.356 357.600,323.804 357.339,324.124 357.019 C 324.443 356.700,324.845 356.565,325.017 356.719 C 325.188 356.874,325.199 356.775,325.041 356.500 C 324.689 355.889,324.794 355.865,323.656 356.813 " stroke="none" fill="#2c9a63" fill-rule="evenodd"></path><path id="path3" d="M113.023 289.962 C 112.900 290.162,112.484 290.245,112.100 290.148 C 111.600 290.022,107.392 293.987,97.400 304.000 L 83.400 318.029 86.412 320.915 C 91.889 326.163,97.278 330.510,103.715 334.875 C 105.082 335.803,106.549 336.885,106.975 337.281 C 107.402 337.676,107.987 338.000,108.275 338.000 C 108.564 338.000,108.800 338.180,108.800 338.400 C 108.800 338.620,109.036 338.800,109.325 338.800 C 109.613 338.800,110.236 339.160,110.708 339.600 C 111.180 340.040,111.844 340.400,112.183 340.400 C 112.522 340.400,112.800 340.580,112.800 340.800 C 112.800 341.997,115.036 339.967,127.902 327.098 C 141.683 313.313,142.839 312.000,141.200 312.000 C 140.760 312.000,140.400 311.864,140.400 311.698 C 140.400 311.531,139.815 311.141,139.100 310.831 C 137.580 310.171,133.269 307.338,132.400 306.428 C 132.070 306.083,131.543 305.744,131.228 305.676 C 130.498 305.518,128.394 304.054,127.553 303.119 C 127.197 302.724,126.730 302.400,126.515 302.400 C 126.300 302.400,125.798 302.040,125.400 301.600 C 125.002 301.160,124.498 300.800,124.281 300.800 C 124.064 300.800,123.381 300.271,122.764 299.625 C 122.146 298.979,121.291 298.263,120.864 298.034 C 118.910 296.988,112.818 290.660,113.257 290.131 C 113.499 289.839,113.597 289.600,113.473 289.600 C 113.349 289.600,113.146 289.763,113.023 289.962 M312.400 322.666 C 298.804 335.028,283.414 345.168,268.000 351.920 C 267.010 352.354,265.375 353.080,264.368 353.534 C 250.521 359.766,225.973 365.703,209.958 366.692 L 206.917 366.879 191.158 382.657 C 182.491 391.334,175.715 398.317,176.100 398.174 C 176.487 398.031,176.800 398.102,176.800 398.334 C 176.800 398.565,177.177 398.682,177.637 398.593 C 178.265 398.472,178.413 398.588,178.232 399.060 C 178.068 399.488,178.169 399.621,178.547 399.476 C 178.853 399.358,179.788 399.417,180.625 399.606 C 181.548 399.814,182.434 399.796,182.874 399.560 C 183.382 399.289,183.600 399.312,183.600 399.637 C 183.600 400.009,212.936 399.966,224.109 399.576 C 224.498 399.563,224.713 399.382,224.585 399.176 C 224.395 398.869,228.835 398.538,230.130 398.763 C 230.311 398.794,230.345 398.635,230.206 398.410 C 230.042 398.145,230.950 398.000,232.776 398.000 C 234.392 398.000,235.600 397.829,235.600 397.600 C 235.600 397.380,236.421 397.200,237.424 397.200 C 238.537 397.200,239.151 397.044,239.000 396.800 C 238.851 396.558,239.396 396.400,240.376 396.400 C 241.269 396.400,242.000 396.220,242.000 396.000 C 242.000 395.780,242.799 395.600,243.776 395.600 C 244.753 395.600,245.664 395.420,245.800 395.200 C 245.936 394.980,246.667 394.800,247.424 394.800 C 248.181 394.800,248.800 394.655,248.800 394.478 C 248.800 394.301,249.558 394.112,250.485 394.057 C 251.411 394.002,252.356 393.820,252.585 393.651 C 252.813 393.482,253.810 393.111,254.800 392.826 C 255.790 392.542,256.960 392.153,257.400 391.963 C 257.840 391.773,258.740 391.539,259.400 391.442 C 260.060 391.345,260.645 391.228,260.700 391.183 C 260.755 391.137,260.965 391.078,261.167 391.050 C 261.368 391.023,261.668 390.865,261.833 390.700 C 261.998 390.535,262.744 390.400,263.490 390.400 C 264.293 390.400,264.746 390.237,264.600 390.000 C 264.464 389.780,264.768 389.579,265.276 389.554 C 266.810 389.477,266.956 389.429,268.172 388.607 C 268.816 388.171,269.732 387.865,270.206 387.927 C 270.681 387.989,271.285 387.780,271.549 387.461 C 271.819 387.136,272.417 386.967,272.915 387.076 C 273.629 387.232,273.684 387.186,273.200 386.841 C 272.700 386.484,272.746 386.411,273.476 386.406 C 273.958 386.403,274.464 386.220,274.600 386.000 C 274.736 385.780,275.287 385.600,275.824 385.600 C 276.361 385.600,276.800 385.420,276.800 385.200 C 276.800 384.980,277.160 384.800,277.600 384.800 C 278.040 384.800,278.400 384.590,278.400 384.333 C 278.400 384.077,278.515 383.982,278.656 384.123 C 278.797 384.264,279.472 384.088,280.156 383.732 C 282.461 382.534,282.787 382.400,283.395 382.400 C 283.728 382.400,284.000 382.241,284.000 382.047 C 284.000 381.743,285.096 381.228,286.115 381.054 C 286.288 381.024,286.582 380.752,286.770 380.449 C 286.957 380.146,287.312 380.022,287.558 380.174 C 287.804 380.326,288.114 380.169,288.246 379.825 C 288.378 379.481,288.826 379.200,289.243 379.200 C 289.659 379.200,290.000 379.020,290.000 378.800 C 290.000 378.580,290.360 378.400,290.800 378.400 C 291.240 378.400,291.600 378.220,291.600 378.000 C 291.600 377.780,291.960 377.600,292.400 377.600 C 292.840 377.600,293.200 377.420,293.200 377.200 C 293.200 376.980,293.545 376.800,293.967 376.800 C 294.388 376.800,294.793 376.633,294.867 376.430 C 294.940 376.226,295.270 376.001,295.600 375.930 C 295.930 375.858,296.491 375.485,296.847 375.100 C 297.203 374.715,297.788 374.400,298.147 374.400 C 298.506 374.400,298.800 374.226,298.800 374.013 C 298.800 373.799,299.061 373.725,299.380 373.848 C 299.699 373.970,300.451 373.614,301.053 373.056 C 301.654 372.499,302.293 372.134,302.473 372.245 C 302.653 372.356,302.800 372.227,302.800 371.957 C 302.800 371.687,302.905 371.572,303.033 371.700 C 303.162 371.828,303.618 371.582,304.048 371.152 C 304.478 370.722,305.030 370.495,305.276 370.647 C 305.548 370.815,305.612 370.743,305.438 370.462 C 305.269 370.188,305.407 370.000,305.776 370.000 C 306.119 370.000,306.400 369.849,306.400 369.664 C 306.400 369.296,308.419 368.218,308.900 368.330 C 309.065 368.369,309.200 368.220,309.200 368.000 C 309.200 367.780,309.481 367.600,309.824 367.600 C 310.167 367.600,310.336 367.420,310.200 367.200 C 310.064 366.980,310.323 366.800,310.776 366.800 C 311.229 366.800,311.600 366.620,311.600 366.400 C 311.600 366.180,311.881 366.000,312.224 366.000 C 312.567 366.000,312.736 365.820,312.600 365.600 C 312.464 365.380,312.633 365.200,312.976 365.200 C 313.319 365.200,313.600 365.020,313.600 364.800 C 313.600 364.580,313.883 364.400,314.229 364.400 C 314.898 364.400,316.084 363.418,315.782 363.115 C 315.682 363.016,316.096 362.684,316.701 362.377 C 318.278 361.578,319.998 360.131,319.711 359.844 C 319.577 359.710,319.957 359.600,320.557 359.600 C 321.157 359.600,321.553 359.447,321.437 359.260 C 321.322 359.073,321.665 358.686,322.200 358.400 C 322.735 358.114,323.107 357.772,323.028 357.640 C 322.948 357.508,323.344 357.054,323.907 356.632 C 324.529 356.165,324.802 356.086,324.601 356.432 C 324.198 357.125,326.369 355.281,327.119 354.293 C 327.413 353.905,327.824 353.691,328.030 353.819 C 328.237 353.946,328.514 353.769,328.646 353.425 C 328.778 353.081,329.059 352.800,329.271 352.800 C 329.831 352.800,330.806 351.739,330.514 351.448 C 330.378 351.311,330.494 351.200,330.773 351.200 C 331.051 351.200,331.827 350.615,332.496 349.900 C 333.166 349.185,333.958 348.653,334.257 348.718 C 334.586 348.789,334.800 348.487,334.800 347.951 C 334.800 347.465,334.909 347.176,335.042 347.309 C 335.311 347.578,337.200 345.681,337.200 345.142 C 337.200 344.954,337.382 344.800,337.604 344.800 C 337.826 344.800,338.572 344.260,339.263 343.600 C 339.954 342.940,340.634 342.400,340.775 342.400 C 340.916 342.400,335.710 337.090,329.207 330.600 C 322.703 324.110,317.206 318.811,316.991 318.824 C 316.776 318.837,314.710 320.566,312.400 322.666 " stroke="none" fill="#2c8c5d" fill-rule="evenodd"></path><path id="path4" d="M204.400 172.000 C 204.400 172.220,204.040 172.400,203.600 172.400 C 203.160 172.400,202.800 172.580,202.800 172.800 C 202.800 173.020,202.440 173.200,202.000 173.200 C 201.560 173.200,201.200 173.436,201.200 173.725 C 201.200 174.013,200.840 174.636,200.400 175.108 C 199.492 176.083,199.097 243.200,200.000 243.200 C 200.220 243.200,200.400 243.478,200.400 243.818 C 200.400 244.618,202.182 246.400,202.982 246.400 C 203.322 246.400,203.600 246.580,203.600 246.800 C 203.600 247.064,219.725 247.200,251.176 247.200 C 282.463 247.200,298.837 247.337,299.000 247.600 C 299.136 247.820,299.867 248.000,300.624 248.000 C 301.381 248.000,302.000 248.180,302.000 248.400 C 302.000 248.620,302.274 248.800,302.609 248.800 C 303.382 248.800,307.600 252.990,307.600 253.758 C 307.600 254.074,307.819 254.406,308.086 254.495 C 308.781 254.727,308.794 262.468,308.100 262.700 C 307.825 262.792,307.600 263.212,307.600 263.633 C 307.600 264.055,307.420 264.400,307.200 264.400 C 306.980 264.400,306.800 264.720,306.800 265.112 C 306.800 265.503,306.440 266.083,306.000 266.400 C 305.560 266.717,305.200 267.257,305.200 267.600 C 305.200 267.943,304.840 268.483,304.400 268.800 C 303.960 269.117,303.600 269.657,303.600 270.000 C 303.600 270.343,303.240 270.883,302.800 271.200 C 302.360 271.517,302.000 272.025,302.000 272.328 C 302.000 272.631,301.460 273.383,300.800 274.000 C 300.140 274.617,299.600 275.253,299.600 275.414 C 299.600 275.574,299.276 275.997,298.881 276.353 C 298.486 276.709,297.724 277.630,297.188 278.400 C 296.652 279.170,295.670 280.354,295.007 281.031 C 293.261 282.812,291.211 285.346,291.205 285.731 C 291.202 285.914,290.493 286.742,289.628 287.573 L 288.057 289.083 302.328 303.245 C 334.798 335.467,341.031 341.600,341.311 341.600 C 341.749 341.600,352.000 331.227,352.000 330.784 C 352.000 330.575,352.900 329.485,354.000 328.361 C 355.100 327.238,356.000 326.149,356.000 325.941 C 356.000 325.734,356.405 325.130,356.900 324.601 C 358.287 323.117,358.800 322.459,358.800 322.160 C 358.800 322.010,359.340 321.371,360.000 320.740 C 360.660 320.109,361.200 319.364,361.200 319.085 C 361.200 318.805,361.560 318.317,362.000 318.000 C 362.440 317.683,362.800 317.220,362.800 316.971 C 362.800 316.722,363.340 315.954,364.000 315.263 C 364.660 314.572,365.200 313.775,365.200 313.492 C 365.200 313.209,365.560 312.717,366.000 312.400 C 366.440 312.083,366.800 311.543,366.800 311.200 C 366.800 310.857,367.160 310.317,367.600 310.000 C 368.040 309.683,368.400 309.186,368.400 308.895 C 368.400 308.604,368.731 308.011,369.136 307.577 C 369.541 307.142,370.126 306.295,370.436 305.693 C 370.746 305.092,371.309 304.258,371.686 303.839 C 372.064 303.421,372.291 302.947,372.191 302.785 C 372.091 302.623,372.277 302.268,372.604 301.996 C 372.932 301.724,373.200 301.254,373.200 300.951 C 373.200 300.648,373.345 300.400,373.523 300.400 C 373.877 300.400,375.200 297.612,375.200 296.866 C 375.200 296.610,375.380 296.400,375.600 296.400 C 375.820 296.400,376.000 296.040,376.000 295.600 C 376.000 295.160,376.180 294.800,376.400 294.800 C 376.620 294.800,376.800 294.440,376.800 294.000 C 376.800 293.560,376.980 293.200,377.200 293.200 C 377.420 293.200,377.600 292.840,377.600 292.400 C 377.600 291.960,377.747 291.600,377.926 291.600 C 378.335 291.600,380.000 288.519,380.000 287.762 C 380.000 287.453,380.180 287.200,380.400 287.200 C 380.620 287.200,380.800 286.840,380.800 286.400 C 380.800 285.960,380.980 285.600,381.200 285.600 C 381.420 285.600,381.600 285.240,381.600 284.800 C 381.600 284.360,381.780 284.000,382.000 284.000 C 382.220 284.000,382.400 283.640,382.400 283.200 C 382.400 282.760,382.580 282.400,382.800 282.400 C 383.020 282.400,383.200 282.040,383.200 281.600 C 383.200 281.160,383.380 280.800,383.600 280.800 C 383.820 280.800,384.000 280.361,384.000 279.824 C 384.000 279.287,384.180 278.736,384.400 278.600 C 384.620 278.464,384.800 278.003,384.800 277.576 C 384.800 277.149,384.980 276.800,385.200 276.800 C 385.420 276.800,385.600 276.440,385.600 276.000 C 385.600 275.560,385.780 275.200,386.000 275.200 C 386.220 275.200,386.400 274.838,386.400 274.395 C 386.400 273.952,386.559 273.277,386.753 272.895 C 386.948 272.513,387.329 271.660,387.600 271.000 C 387.871 270.340,388.252 269.487,388.447 269.105 C 388.641 268.723,388.800 268.048,388.800 267.605 C 388.800 267.162,388.980 266.800,389.200 266.800 C 389.420 266.800,389.600 266.260,389.600 265.600 C 389.600 264.940,389.780 264.400,390.000 264.400 C 390.220 264.400,390.400 263.871,390.400 263.224 C 390.400 262.577,390.567 261.944,390.772 261.817 C 390.977 261.691,391.267 260.600,391.418 259.394 C 391.569 258.187,391.851 257.200,392.046 257.200 C 392.241 257.200,392.400 256.660,392.400 256.000 C 392.400 255.340,392.580 254.800,392.800 254.800 C 393.020 254.800,393.200 254.170,393.200 253.400 C 393.200 252.630,393.380 252.000,393.600 252.000 C 393.820 252.000,394.000 251.280,394.000 250.400 C 394.000 249.520,394.180 248.800,394.400 248.800 C 394.620 248.800,394.800 248.080,394.800 247.200 C 394.800 246.320,394.980 245.600,395.200 245.600 C 395.420 245.600,395.600 244.891,395.600 244.024 C 395.600 243.157,395.780 242.336,396.000 242.200 C 396.220 242.064,396.400 241.254,396.400 240.400 C 396.400 239.546,396.580 238.736,396.800 238.600 C 397.020 238.464,397.200 237.474,397.200 236.400 C 397.200 235.326,397.380 234.336,397.600 234.200 C 397.820 234.064,398.000 232.984,398.000 231.800 C 398.000 230.616,398.180 229.536,398.400 229.400 C 398.620 229.264,398.800 227.918,398.800 226.410 C 398.800 224.583,398.966 223.611,399.296 223.501 C 399.681 223.373,399.825 218.009,399.940 199.547 L 400.089 175.758 398.476 174.079 C 397.589 173.156,396.579 172.400,396.231 172.400 C 395.884 172.400,395.600 172.220,395.600 172.000 C 395.600 171.734,363.467 171.600,300.000 171.600 C 236.533 171.600,204.400 171.734,204.400 172.000 " stroke="none" fill="#689ff3" fill-rule="evenodd"></path></g></svg>