<svg id="Capa_1" enable-background="new 0 0 512 512" height="512" viewBox="0 0 512 512" width="512" xmlns="http://www.w3.org/2000/svg"><path d="m122.057 323.095-41.207 41.207-33.998 147.698h418.297l-30.142-130.946 25.454-23.894v-118.754l-94.75 84.688h-49.162v-12.465c29.332-16.302 51.456-44.057 60.29-77.183h8.32c29.038 0 52.662-23.624 52.662-52.661 0-29.038-23.624-52.662-52.662-52.662h-4.111v-3.075h-.501c20.568-14.669 34.019-38.704 34.019-65.836v-59.212h-202.778c-44.573 0-80.835 36.263-80.835 80.835v33.362 13.926h-4.111c-29.038 0-52.661 23.624-52.661 52.662 0 29.037 23.624 52.661 52.661 52.661h8.32c8.834 33.126 30.957 60.881 60.29 77.183v12.465h-73.395zm305.401 158.905h-99.988l82.221-77.182zm3.002-137.826-146.823 137.826h-50.694l197.517-176.543zm-242.534 137.826h-103.384l23.612-102.575 26.33-26.33h65.216c8.884 22.414 30.763 38.314 56.301 38.314s47.417-15.9 56.301-38.314h19.845zm197.233-323.877c12.496 0 22.662 10.166 22.662 22.662 0 12.495-10.166 22.661-22.662 22.661h-4.139c.013-.731.028-1.461.028-2.194v-43.129zm-224.206-77.288c0-28.03 22.805-50.835 50.835-50.835h172.778v29.212c0 28.031-22.805 50.836-50.835 50.836h-172.778zm-34.112 122.611c-12.496 0-22.661-10.166-22.661-22.661 0-12.496 10.166-22.662 22.661-22.662h4.111v43.129c0 .734.015 1.464.028 2.194zm34.111-2.194v-61.204h172.778c5.945 0 11.735-.664 17.317-1.887v63.092c0 52.409-42.638 95.048-95.048 95.048s-95.047-42.64-95.047-95.049zm95.048 125.048c10.535 0 20.768-1.316 30.549-3.781v8.341c0 16.845-13.704 30.549-30.549 30.549s-30.549-13.704-30.549-30.549v-8.341c9.781 2.465 20.014 3.781 30.549 3.781z"/></svg>